<svg width="57" height="61" viewBox="0 0 57 61" fill="none" xmlns="http://www.w3.org/2000/svg">
<path fill-rule="evenodd" clip-rule="evenodd" d="M23.4705 55.1434C20.0441 53.657 14.6838 49.6497 12.2281 46.1485C8.84025 41.3183 7.95987 35.7108 9.09881 29.98C10.2377 24.2493 16.8976 17.5266 21.9343 14.3333C26.6415 11.349 40.9985 5.77129 47.0569 5.05417C47.7093 4.97694 48.2625 5.4666 48.3443 6.11844C48.3731 6.34768 48.4623 6.56516 48.6028 6.74858L50.4217 9.12323C48.4425 6.99437 27.9459 13.2619 21.2845 18.1428C18.8473 19.9286 13.5398 24.3613 11.5358 29.98C10.0536 34.8102 10.84 40.5946 13.5397 44.8655C16.1681 48.7266 20.7995 52.4395 24.755 54.5567C24.8383 54.6013 24.922 54.645 25.0056 54.6886C25.1358 54.7566 25.2659 54.8246 25.3947 54.896C25.3962 54.8968 25.3978 54.8977 25.3993 54.8985L26.2559 55.3511L28.3733 56.3679L31.5203 57.4704L34.5532 58.3108C35.7001 58.5415 36.7515 58.6984 37.7988 58.8547C38.5318 58.9641 39.2628 59.0732 40.0231 59.2071L42.0812 59.4872L42.9477 59.6553L43.7601 59.7673L41.4854 59.6553L39.2649 59.4872L34.6615 58.7029C33.3197 58.4487 28.4088 57.1945 27.3501 56.6861L25.3462 55.9578L23.4406 55.1495L23.4705 55.1434Z" fill="url(#paint0_linear_403_299)"/>
<circle cx="51" cy="6" r="6" fill="url(#paint1_linear_403_299)"/>
<circle cx="51" cy="6" r="6" fill="url(#paint2_linear_403_299)"/>
<circle cx="51" cy="6" r="3" fill="url(#paint3_linear_403_299)"/>
<circle cx="51" cy="6" r="3" fill="white"/>
<path fill-rule="evenodd" clip-rule="evenodd" d="M39.2113 18.031L39.6987 20.6641L36.6659 21.3924L31.6833 23.1851L28.0547 24.9218L25.4009 26.6024L24.0557 27.7093C23.3653 28.2774 22.7275 28.9066 22.15 29.5893L21.9416 29.8357C21.1445 30.778 20.4389 31.7939 19.8342 32.8697L19.6441 33.208C19.4745 33.5098 19.3267 33.8233 19.2018 34.1462C18.8227 35.1266 18.5623 36.1488 18.4262 37.1911L18.3603 37.6949L18.296 39.2909C18.2668 40.0173 18.3198 40.7446 18.4541 41.4591C18.5719 42.0858 18.7403 42.702 18.9577 43.3016L18.967 43.3273C19.1761 43.9039 19.4285 44.4639 19.7221 45.0023L20.4725 46.3783L21.989 48.4512L23.5595 50.1319L23.9865 50.5077C25.3967 51.7492 26.9017 52.8785 28.488 53.8854L30.4089 54.8879L31.3577 55.2857L33.3578 56.0622L35.9612 56.9103L38.6691 57.5826C39.524 57.7464 40.4923 57.9052 41.4478 58.0618C42.3448 58.2089 43.2304 58.3541 44 58.4998L41.702 58.3109L40.6188 58.1989L38.6691 57.8627C37.5285 57.6568 33.395 56.5938 32.4951 56.182L30.8162 55.6218L29.1379 54.8938L29.1372 54.8935L29.1374 54.8935L27.5673 54.1094L25.1301 52.7089L22.9839 51.0834C22.3937 50.6365 21.8388 50.1446 21.3243 49.6123C20.3973 48.6535 19.5595 47.6122 18.8213 46.5015L18.7394 46.3783L18.1742 45.2356C17.7573 44.3926 17.4031 43.52 17.1147 42.6248C16.8625 41.4697 16.7214 40.2931 16.6932 39.1111L16.6602 37.7309C16.6383 36.8145 16.7363 35.8991 16.9517 35.008C17.2395 33.817 17.6886 32.6708 18.2864 31.6012L18.389 31.4176C19.0538 30.228 19.8498 29.1167 20.762 28.1044L21.4484 27.3428C22.0606 26.6635 22.7242 26.0323 23.4333 25.4549L24.9135 24.2495L26.2675 23.3811L27.6214 22.5128L32.1707 20.3839L35.4202 19.2075L39.2113 18.031Z" fill="#30DFEA"/>
<circle cx="42" cy="19" r="4" fill="#30DFEA"/>
<circle cx="42" cy="19" r="4" fill="#30DFEA"/>
<circle cx="42" cy="19" r="2" fill="#30DFEA"/>
<circle cx="42" cy="19" r="2" fill="white"/>
<path fill-rule="evenodd" clip-rule="evenodd" d="M15.6935 55.0106C12.2348 53.5377 6.3842 48.7332 3.75577 44.6974C0.28967 39.3752 -0.685104 33.0447 0.452107 26.8822C1.95241 20.9 5.70553 15.9018 10.2007 12.1483C14.3099 8.71705 18.869 6.38377 22.8512 4.61953C23.4774 4.34208 24.2093 4.59401 24.5405 5.19356C24.5846 5.27337 24.6373 5.34906 24.6967 5.41822C25.3082 6.12984 25.0955 7.23029 24.2503 7.63781C24.1306 7.69555 24.0096 7.75383 23.8873 7.8127C20.2374 9.57057 15.5008 11.8518 11.2595 15.721C8.35929 18.3668 5.4889 21.4481 3.37672 27.4424C1.86027 32.7646 2.67264 38.4789 5.43472 43.1847C7.86943 47.0366 11.6086 50.7578 15.2799 53.159C15.57 53.3487 15.8773 53.5197 16.1846 53.6907C16.5957 53.9195 17.0069 54.1483 17.377 54.4219L18.1075 54.8375L20.2738 55.958L23.4691 57.3585L26.2312 58.2549C28.0815 58.789 29.9201 59.1851 31.8095 59.5434L33.8676 59.8796L37.9294 60.3277L43.9952 61L37.9836 60.7199L34.1384 60.3277L32.2428 60.1036L30.3473 59.8235L26.1771 58.9272C24.8042 58.6471 20.2008 57.1345 19.1176 56.5742L17.0596 55.6779L15.6935 55.0106Z" fill="#06D889"/>
<circle cx="26" cy="4" r="4" fill="#06D889"/>
<circle cx="26" cy="4" r="2" fill="#141418"/>
<circle cx="26" cy="4" r="2" fill="white"/>
<defs>
<linearGradient id="paint0_linear_403_299" x1="54.1597" y1="2.06578" x2="6.10444" y2="59.7127" gradientUnits="userSpaceOnUse">
<stop stop-color="#06D889"/>
<stop offset="1" stop-color="#45C7E6"/>
</linearGradient>
<linearGradient id="paint1_linear_403_299" x1="53.5965" y1="-1.10427" x2="45.4406" y2="12.0054" gradientUnits="userSpaceOnUse">
<stop offset="0.151051" stop-color="#06D889"/>
<stop offset="0.822966" stop-color="#45C7E6"/>
</linearGradient>
<linearGradient id="paint2_linear_403_299" x1="51" y1="0" x2="51" y2="12" gradientUnits="userSpaceOnUse">
<stop offset="0.151051" stop-color="#06D889"/>
<stop offset="0.822966" stop-color="#45C7E6"/>
</linearGradient>
<linearGradient id="paint3_linear_403_299" x1="51" y1="3" x2="51" y2="9" gradientUnits="userSpaceOnUse">
<stop offset="0.151051" stop-color="#06D889"/>
<stop offset="0.822966" stop-color="#45C7E6"/>
</linearGradient>
</defs>
</svg>
